<svg t="1680189449304" class="icon" viewBox="0 0 1024 1024" version="1.1" xmlns="http://www.w3.org/2000/svg" p-id="2451" width="128" height="128"><path d="M230.7 683.3c-22.2-147.4 24.1-403.6 286-418.6C863.6 244.8 844.4 578 844.4 578s-163.7 2.8-163.7 166.7c0 40.2-0.3 130.3-156.9 130.3-163.8-0.1-121-191.7-293.1-191.7" fill="#20B573" p-id="2452"></path><path d="M525.2 669.6c-33 0-59.9 26.9-59.9 59.9s26.9 59.9 59.9 59.9 59.9-26.9 59.9-59.9-26.9-59.9-59.9-59.9z m0 79.9c-11 0-20-9-20-20s8.9-20 20-20c11 0 20 9 20 20s-9 20-20 20z" fill="#211F1E" p-id="2453"></path><path d="M915 726.7H780.7c-2.5-18.4-3.8-38.5-3.8-60.2l-0.3-51.5c33.2-16 65.3-17 68.1-17.1 10.4-0.2 19-8.4 19.6-18.8 0.3-6 7.5-148.8-85.2-247-60.8-64.4-149.6-93.9-263.5-87.4-96.4 5.5-172.7 42.2-227 109.1-79.5 97.8-91.5 240.2-77.6 332.4 1.5 9.8 9.9 17 19.7 17 76.3 0 103.1 41 134.1 88.5 31.5 48.3 67.3 103.1 159 103.1 150.8 0 173-79.3 176.3-128.2h47.3c11.2 46.9 31.5 82.3 60.7 105.8 31.3 25.2 65.4 30.1 87.4 30.1 13.7 0 22.7-1.9 23.6-2.1 9.1-2 15.7-10.1 15.7-19.5V746.7c0.1-11.1-8.8-20-19.8-20z m-254.2 17.9c0 41.3 0 110.3-137 110.3-70.1 0-95.8-39.4-125.6-85-30.6-46.8-65-99.6-149.9-106-9-83.9 4.4-202.8 71.2-285 46.9-57.8 113.7-89.5 198.3-94.4 101.4-5.8 179.6 19.4 232 74.7 63.3 66.9 73.3 161.6 74.6 200.1-65.6 8.4-163.6 54-163.6 185.3z m40.8-17.9c3.4-37.7 17.3-64.4 35.3-83.2l0.1 23.1c0 21.4 1.1 41.5 3.4 60.1h-38.8z m193.4 136c-15.5 0-39.9-3.6-62.3-21.8-19.8-16.1-34.5-41.2-43.9-74.3H895v96.1z" fill="#211F1E" p-id="2454"></path><path d="M650.5 577.9m-20 0a20 20 0 1 0 40 0 20 20 0 1 0-40 0Z" fill="#211F1E" p-id="2455"></path><path d="M387.2 669.2m-20 0a20 20 0 1 0 40 0 20 20 0 1 0-40 0Z" fill="#211F1E" p-id="2456"></path><path d="M346.8 477.6c-3.2 0-6.5-0.8-9.6-2.5-9.7-5.3-13.2-17.4-7.9-27.1 31.1-56.7 95-124.8 223.1-127.4 10.9-0.2 20.1 8.5 20.4 19.6 0.2 11-8.5 20.1-19.6 20.4-87.4 1.8-151 37.7-188.9 106.7-3.6 6.5-10.5 10.3-17.5 10.3zM309.5 617.8c-11 0-20-8.9-20-19.9 0-0.6 0-16.1 3.5-39.2 1.6-10.9 11.9-18.5 22.7-16.8 10.9 1.6 18.4 11.8 16.8 22.7-3 19.9-3.1 33.1-3.1 33.3 0 11-8.9 19.9-19.9 19.9z" fill="#FFFFFF" p-id="2457"></path></svg>