<svg height="369" legacy-metrics="false" node-id="1" sillyvg="true" template-height="369" template-width="850" version="1.1" viewBox="0 0 850 369" width="850" xmlns="http://www.w3.org/2000/svg" xmlns:xlink="http://www.w3.org/1999/xlink"><defs node-id="10"><linearGradient gradientUnits="userSpaceOnUse" id="SVGID_1_" node-id="5" x1="424.7261" x2="424.7261" y1="287.5" y2="116.9507"><stop offset="0" stop-color="#478ccb"></stop><stop offset="1" stop-color="#6aabde"></stop></linearGradient></defs><path d="M 647.77 222.62 C 648.17 222.24 648.64 222.05 649.20 222.05 L 668.80 222.05 C 669.36 222.05 669.83 222.24 670.23 222.62 C 670.61 223.02 670.80 223.49 670.80 224.05 C 670.80 224.61 670.61 225.08 670.23 225.47 C 669.83 225.86 669.36 226.05 668.80 226.05 L 649.20 226.05 C 648.64 226.05 648.17 225.86 647.77 225.47 C 647.39 225.08 647.20 224.61 647.20 224.05 C 647.20 223.49 647.39 223.02 647.77 222.62 Z M 634.42 184.53 C 634.82 184.14 635.29 183.95 635.85 183.95 L 794.60 183.95 C 795.16 183.95 795.63 184.14 796.03 184.53 C 796.41 184.92 796.60 185.39 796.60 185.95 C 796.60 186.51 796.41 186.98 796.03 187.38 C 795.63 187.76 795.16 187.95 794.60 187.95 L 635.85 187.95 C 635.29 187.95 634.82 187.76 634.42 187.38 C 634.04 186.98 633.85 186.51 633.85 185.95 C 633.85 185.39 634.04 184.92 634.42 184.53 Z M 624.35 183.95 C 624.91 183.95 625.38 184.14 625.78 184.53 C 626.16 184.92 626.35 185.39 626.35 185.95 C 626.35 186.51 626.16 186.98 625.78 187.38 C 625.38 187.76 624.91 187.95 624.35 187.95 L 603.60 187.95 C 603.04 187.95 602.57 187.76 602.17 187.38 C 601.79 186.98 601.60 186.51 601.60 185.95 C 601.60 185.39 601.79 184.92 602.17 184.53 C 602.57 184.14 603.04 183.95 603.60 183.95 L 624.35 183.95 Z M 601.95 129.35 L 589.80 129.35 L 583.70 139.90 L 589.80 150.40 L 601.95 150.40 L 608.05 139.90 L 601.95 129.35 Z M 612.35 139.90 C 612.35 140.25 612.26 140.59 612.08 140.90 L 604.83 153.40 C 604.65 153.71 604.41 153.95 604.10 154.12 C 603.79 154.31 603.46 154.40 603.10 154.40 L 588.65 154.40 C 588.29 154.40 587.96 154.31 587.65 154.12 C 587.34 153.95 587.10 153.71 586.92 153.40 L 579.67 140.90 C 579.49 140.59 579.40 140.25 579.40 139.90 C 579.40 139.54 579.49 139.21 579.67 138.90 L 586.92 126.35 C 587.10 126.04 587.34 125.80 587.65 125.62 C 587.96 125.44 588.29 125.35 588.65 125.35 L 603.10 125.35 C 603.46 125.35 603.79 125.44 604.10 125.62 C 604.41 125.80 604.65 126.04 604.83 126.35 L 612.08 138.90 C 612.26 139.21 612.35 139.54 612.35 139.90 Z M 746.75 204.10 C 746.19 204.10 745.72 203.91 745.33 203.53 C 744.94 203.13 744.75 202.66 744.75 202.10 C 744.75 201.54 744.94 201.07 745.33 200.68 C 745.72 200.29 746.19 200.10 746.75 200.10 L 764.05 200.10 C 764.61 200.10 765.08 200.29 765.48 200.68 C 765.86 201.07 766.05 201.54 766.05 202.10 C 766.05 202.66 765.86 203.13 765.48 203.53 C 765.08 203.91 764.61 204.10 764.05 204.10 L 746.75 204.10 Z M 720.70 204.10 C 720.14 204.10 719.67 203.91 719.27 203.53 C 718.89 203.13 718.70 202.66 718.70 202.10 C 718.70 201.54 718.89 201.07 719.27 200.68 C 719.67 200.29 720.14 200.10 720.70 200.10 L 737.80 200.10 C 738.36 200.10 738.83 200.29 739.23 200.68 C 739.61 201.07 739.80 201.54 739.80 202.10 C 739.80 202.66 739.61 203.13 739.23 203.53 C 738.83 203.91 738.36 204.10 737.80 204.10 L 720.70 204.10 Z M 707.12 203.53 C 706.73 203.91 706.26 204.10 705.70 204.10 L 586.17 204.10 L 509.57 336.90 C 509.40 337.20 509.16 337.45 508.85 337.62 C 508.54 337.81 508.21 337.90 507.85 337.90 L 458.75 337.90 C 458.19 337.90 457.72 337.71 457.32 337.32 C 456.94 336.93 456.75 336.46 456.75 335.90 C 456.75 335.34 456.94 334.87 457.32 334.47 C 457.72 334.09 458.19 333.90 458.75 333.90 L 506.70 333.90 L 582.75 202.10 L 566.73 174.40 C 566.45 173.92 566.38 173.41 566.53 172.88 C 566.67 172.35 566.97 171.95 567.45 171.68 C 567.93 171.40 568.44 171.33 568.98 171.47 C 569.50 171.62 569.90 171.92 570.17 172.40 L 586.17 200.10 L 705.70 200.10 C 706.26 200.10 706.73 200.29 707.12 200.68 C 707.51 201.07 707.70 201.54 707.70 202.10 C 707.70 202.66 707.51 203.13 707.12 203.53 Z M 640.38 105.58 C 639.99 105.18 639.80 104.71 639.80 104.15 C 639.80 103.59 639.99 103.12 640.38 102.72 C 640.77 102.34 641.24 102.15 641.80 102.15 L 648.60 102.15 L 648.60 95.35 C 648.60 94.79 648.79 94.32 649.17 93.92 C 649.57 93.54 650.04 93.35 650.60 93.35 C 651.16 93.35 651.63 93.54 652.03 93.92 C 652.41 94.32 652.60 94.79 652.60 95.35 L 652.60 102.15 L 659.40 102.15 C 659.96 102.15 660.43 102.34 660.83 102.72 C 661.21 103.12 661.40 103.59 661.40 104.15 C 661.40 104.71 661.21 105.18 660.83 105.58 C 660.43 105.96 659.96 106.15 659.40 106.15 L 652.60 106.15 L 652.60 112.95 C 652.60 113.51 652.41 113.98 652.03 114.38 C 651.63 114.76 651.16 114.95 650.60 114.95 C 650.04 114.95 649.57 114.76 649.17 114.38 C 648.79 113.98 648.60 113.51 648.60 112.95 L 648.60 106.15 L 641.80 106.15 C 641.24 106.15 640.77 105.96 640.38 105.58 Z M 591.65 57.48 L 591.67 57.48 C 599.23 61.92 602.95 67.33 602.85 73.70 C 602.95 80.07 599.22 85.47 591.65 89.88 L 591.67 89.88 C 584.59 94.06 576.03 96.15 566.00 96.15 C 564.08 96.15 560.52 95.84 555.32 95.22 L 545.15 102.47 C 544.74 102.77 544.28 102.89 543.77 102.83 C 543.26 102.77 542.84 102.55 542.50 102.18 C 542.16 101.80 542.00 101.36 542.00 100.85 L 542.00 90.80 C 541.44 90.50 540.89 90.19 540.35 89.88 C 532.78 85.46 529.05 80.07 529.15 73.70 C 529.04 67.33 532.77 61.92 540.33 57.47 L 540.35 57.47 C 547.42 53.33 555.97 51.25 566.00 51.25 C 576.03 51.25 584.58 53.33 591.65 57.48 Z M 589.62 60.92 L 589.65 60.92 C 583.12 57.14 575.24 55.25 566.00 55.25 C 556.76 55.25 548.88 57.14 542.35 60.92 L 542.38 60.92 C 536.33 64.48 533.25 68.74 533.15 73.70 C 533.25 78.66 536.31 82.90 542.35 86.42 C 543.19 86.91 544.05 87.37 544.92 87.83 C 545.25 88.00 545.51 88.25 545.70 88.58 C 545.90 88.89 546.00 89.23 546.00 89.60 L 546.00 96.97 L 553.65 91.53 C 554.07 91.23 554.54 91.11 555.05 91.17 C 560.43 91.82 564.08 92.15 566.00 92.15 C 575.23 92.15 583.10 90.24 589.62 86.42 L 589.65 86.42 C 595.68 82.90 598.75 78.66 598.85 73.70 C 598.75 68.74 595.67 64.48 589.62 60.92 Z M 643.15 224.70 C 643.08 224.90 643.05 224.75 643.05 224.25 C 643.05 223.95 643.13 223.75 643.30 223.65 C 643.40 223.62 643.57 223.58 643.80 223.55 C 644.07 223.65 644.32 223.85 644.55 224.15 L 644.50 224.85 C 644.53 224.98 644.30 225.05 643.80 225.05 C 643.50 225.05 643.32 225.02 643.25 224.95 C 643.25 224.85 643.22 224.77 643.15 224.70 Z M 487.98 89.08 C 487.58 89.46 487.11 89.65 486.55 89.65 L 481.50 89.65 C 480.94 89.65 480.47 89.46 480.07 89.08 C 479.69 88.68 479.50 88.21 479.50 87.65 C 479.50 87.09 479.69 86.62 480.07 86.22 C 480.47 85.84 480.94 85.65 481.50 85.65 L 486.55 85.65 C 487.11 85.65 487.58 85.84 487.98 86.22 C 488.36 86.62 488.55 87.09 488.55 87.65 C 488.55 88.21 488.36 88.68 487.98 89.08 Z M 440.00 85.65 C 440.56 85.65 441.03 85.84 441.43 86.22 C 441.81 86.62 442.00 87.09 442.00 87.65 C 442.00 88.21 441.81 88.68 441.43 89.08 C 441.03 89.46 440.56 89.65 440.00 89.65 L 353.80 89.65 L 288.80 202.30 L 307.98 235.60 C 308.25 236.08 308.32 236.59 308.18 237.12 C 308.03 237.65 307.73 238.05 307.25 238.32 C 306.77 238.60 306.26 238.67 305.73 238.52 C 305.20 238.38 304.80 238.07 304.53 237.60 L 284.78 203.30 C 284.60 202.99 284.50 202.65 284.50 202.30 C 284.50 201.94 284.60 201.61 284.78 201.30 L 350.93 86.65 C 351.10 86.34 351.34 86.10 351.65 85.92 C 351.96 85.74 352.29 85.65 352.65 85.65 L 440.00 85.65 Z M 450.35 89.65 C 449.79 89.65 449.32 89.46 448.93 89.08 C 448.54 88.68 448.35 88.21 448.35 87.65 C 448.35 87.09 448.54 86.62 448.93 86.22 C 449.32 85.84 449.79 85.65 450.35 85.65 L 466.50 85.65 C 467.06 85.65 467.53 85.84 467.93 86.22 C 468.31 86.62 468.50 87.09 468.50 87.65 C 468.50 88.21 468.31 88.68 467.93 89.08 C 467.53 89.46 467.06 89.65 466.50 89.65 L 450.35 89.65 Z M 452.50 68.50 C 452.50 67.94 452.69 67.47 453.07 67.08 C 453.47 66.69 453.94 66.50 454.50 66.50 L 464.85 66.50 C 465.41 66.50 465.88 66.69 466.28 67.08 C 466.66 67.47 466.85 67.94 466.85 68.50 C 466.85 69.06 466.66 69.53 466.28 69.92 C 465.88 70.31 465.41 70.50 464.85 70.50 L 454.50 70.50 C 453.94 70.50 453.47 70.31 453.07 69.92 C 452.69 69.53 452.50 69.06 452.50 68.50 Z M 445.52 67.08 C 445.91 67.47 446.10 67.94 446.10 68.50 C 446.10 69.06 445.91 69.53 445.52 69.92 C 445.13 70.31 444.66 70.50 444.10 70.50 L 418.80 70.50 C 418.24 70.50 417.77 70.31 417.37 69.92 C 416.99 69.53 416.80 69.06 416.80 68.50 C 416.80 67.94 416.99 67.47 417.37 67.08 C 417.77 66.69 418.24 66.50 418.80 66.50 L 444.10 66.50 C 444.66 66.50 445.13 66.69 445.52 67.08 Z M 467.93 46.17 C 467.85 46.72 467.59 47.16 467.15 47.50 L 463.40 50.25 C 462.96 50.58 462.47 50.70 461.93 50.62 C 461.38 50.55 460.94 50.29 460.60 49.85 C 460.27 49.41 460.14 48.92 460.23 48.38 C 460.30 47.83 460.56 47.39 461.00 47.05 L 464.75 44.30 C 465.19 43.97 465.68 43.85 466.23 43.92 C 466.77 44.00 467.21 44.26 467.55 44.70 C 467.88 45.14 468.00 45.63 467.93 46.17 Z M 475.12 49.45 C 475.48 49.87 475.64 50.35 475.60 50.90 C 475.56 51.45 475.32 51.91 474.90 52.27 C 474.48 52.63 474.00 52.79 473.45 52.75 C 472.90 52.70 472.44 52.47 472.08 52.05 L 469.13 48.55 C 468.77 48.13 468.61 47.65 468.65 47.10 C 468.69 46.55 468.93 46.09 469.35 45.73 C 469.77 45.37 470.25 45.21 470.80 45.25 C 471.35 45.30 471.81 45.53 472.18 45.95 L 475.12 49.45 Z M 471.88 41.17 C 472.17 40.70 472.58 40.39 473.12 40.25 L 476.27 39.40 C 476.80 39.27 477.30 39.34 477.77 39.62 C 478.25 39.91 478.56 40.32 478.70 40.85 C 478.83 41.39 478.76 41.90 478.47 42.38 C 478.18 42.85 477.77 43.16 477.22 43.30 L 474.07 44.15 C 473.55 44.28 473.05 44.21 472.57 43.92 C 472.10 43.64 471.79 43.23 471.65 42.70 C 471.52 42.16 471.59 41.65 471.88 41.17 Z M 466.82 39.77 C 467.26 40.11 467.51 40.55 467.57 41.10 C 467.65 41.65 467.51 42.14 467.18 42.58 C 466.84 43.01 466.40 43.26 465.85 43.33 C 465.31 43.40 464.81 43.26 464.38 42.92 L 459.18 38.92 C 458.74 38.59 458.49 38.15 458.43 37.60 C 458.35 37.05 458.49 36.56 458.82 36.12 C 459.16 35.69 459.60 35.44 460.15 35.38 C 460.69 35.30 461.19 35.44 461.62 35.77 L 466.82 39.77 Z M 470.85 32.23 C 471.40 32.33 471.83 32.62 472.15 33.08 C 472.46 33.52 472.57 34.02 472.48 34.55 L 471.58 39.45 C 471.47 40.00 471.19 40.43 470.73 40.75 C 470.28 41.07 469.79 41.17 469.25 41.08 C 468.70 40.97 468.27 40.69 467.95 40.23 C 467.63 39.78 467.53 39.29 467.62 38.75 L 468.52 33.85 C 468.63 33.30 468.91 32.87 469.38 32.55 C 469.82 32.23 470.31 32.13 470.85 32.23 Z M 247.45 286.55 L 259.60 286.55 L 265.70 276.05 L 259.60 265.50 L 247.45 265.50 L 241.35 276.05 L 247.45 286.55 Z M 245.30 261.77 C 245.61 261.59 245.95 261.50 246.30 261.50 L 260.75 261.50 C 261.10 261.50 261.44 261.59 261.75 261.77 C 262.06 261.95 262.30 262.19 262.48 262.50 L 269.73 275.05 C 269.91 275.36 270.00 275.69 270.00 276.05 C 270.00 276.40 269.91 276.74 269.73 277.05 L 262.48 289.55 C 262.30 289.86 262.06 290.10 261.75 290.28 C 261.44 290.46 261.11 290.55 260.75 290.55 L 246.30 290.55 C 245.94 290.55 245.61 290.46 245.30 290.28 C 244.99 290.10 244.75 289.86 244.57 289.55 L 237.32 277.05 C 237.14 276.74 237.05 276.40 237.05 276.05 C 237.05 275.70 237.14 275.36 237.32 275.05 L 244.57 262.50 C 244.75 262.19 244.99 261.95 245.30 261.77 Z M 225.93 245.68 C 225.53 246.06 225.06 246.25 224.50 246.25 L 217.70 246.25 L 217.70 253.05 C 217.70 253.61 217.51 254.08 217.12 254.47 C 216.73 254.86 216.26 255.05 215.70 255.05 C 215.14 255.05 214.67 254.86 214.28 254.47 C 213.89 254.08 213.70 253.61 213.70 253.05 L 213.70 246.25 L 206.90 246.25 C 206.34 246.25 205.87 246.06 205.47 245.68 C 205.09 245.28 204.90 244.81 204.90 244.25 C 204.90 243.69 205.09 243.22 205.47 242.82 C 205.87 242.44 206.34 242.25 206.90 242.25 L 213.70 242.25 L 213.70 235.45 C 213.70 234.89 213.89 234.42 214.28 234.03 C 214.67 233.64 215.14 233.45 215.70 233.45 C 216.26 233.45 216.73 233.64 217.12 234.03 C 217.51 234.42 217.70 234.89 217.70 235.45 L 217.70 242.25 L 224.50 242.25 C 225.06 242.25 225.53 242.44 225.93 242.82 C 226.31 243.22 226.50 243.69 226.50 244.25 C 226.50 244.81 226.31 245.28 225.93 245.68 Z M 247.22 219.88 C 246.83 220.26 246.36 220.45 245.80 220.45 L 225.05 220.45 C 224.49 220.45 224.02 220.26 223.62 219.88 C 223.24 219.48 223.05 219.01 223.05 218.45 C 223.05 217.89 223.24 217.42 223.62 217.03 C 224.02 216.64 224.49 216.45 225.05 216.45 L 245.80 216.45 C 246.36 216.45 246.83 216.64 247.22 217.03 C 247.61 217.42 247.80 217.89 247.80 218.45 C 247.80 219.01 247.61 219.48 247.22 219.88 Z M 150.93 200.88 C 151.32 200.49 151.79 200.30 152.35 200.30 L 263.23 200.30 L 339.83 67.50 C 340.00 67.19 340.24 66.95 340.55 66.78 C 340.86 66.59 341.19 66.50 341.55 66.50 L 402.65 66.50 C 403.21 66.50 403.68 66.69 404.08 67.08 C 404.46 67.47 404.65 67.94 404.65 68.50 C 404.65 69.06 404.46 69.53 404.08 69.92 C 403.68 70.31 403.21 70.50 402.65 70.50 L 342.70 70.50 L 266.65 202.30 L 282.67 230.00 C 282.95 230.48 283.02 230.99 282.87 231.53 C 282.73 232.05 282.43 232.45 281.95 232.72 C 281.47 233.00 280.96 233.07 280.42 232.92 C 279.90 232.78 279.50 232.47 279.22 232.00 L 263.22 204.30 L 152.35 204.30 C 151.79 204.30 151.32 204.11 150.93 203.72 C 150.54 203.33 150.35 202.85 150.35 202.30 C 150.35 201.74 150.54 201.27 150.93 200.88 Z M 122.30 204.30 C 121.74 204.30 121.27 204.11 120.88 203.72 C 120.49 203.33 120.30 202.86 120.30 202.30 C 120.30 201.74 120.49 201.27 120.88 200.88 C 121.27 200.49 121.74 200.30 122.30 200.30 L 140.70 200.30 C 141.26 200.30 141.73 200.49 142.12 200.88 C 142.51 201.27 142.70 201.74 142.70 202.30 C 142.70 202.86 142.51 203.33 142.12 203.72 C 141.73 204.11 141.26 204.30 140.70 204.30 L 122.30 204.30 Z M 110.92 178.93 C 111.32 178.54 111.79 178.35 112.35 178.35 L 166.75 178.35 C 167.31 178.35 167.78 178.54 168.18 178.93 C 168.56 179.32 168.75 179.79 168.75 180.35 C 168.75 180.91 168.56 181.38 168.18 181.78 C 167.78 182.16 167.31 182.35 166.75 182.35 L 112.35 182.35 C 111.79 182.35 111.32 182.16 110.92 181.78 C 110.54 181.38 110.35 180.91 110.35 180.35 C 110.35 179.79 110.54 179.32 110.92 178.93 Z M 255.62 181.85 C 255.45 182.16 255.21 182.40 254.90 182.58 C 254.59 182.76 254.26 182.85 253.90 182.85 L 232.90 182.85 C 232.34 182.85 231.87 182.66 231.47 182.28 C 231.09 181.88 230.90 181.41 230.90 180.85 C 230.90 180.29 231.09 179.82 231.47 179.43 C 231.87 179.04 232.34 178.85 232.90 178.85 L 252.75 178.85 L 266.65 154.80 L 263.07 148.60 C 262.80 148.13 262.73 147.63 262.88 147.10 C 263.01 146.57 263.32 146.16 263.80 145.88 C 264.27 145.60 264.77 145.53 265.30 145.68 C 265.83 145.81 266.24 146.12 266.53 146.60 L 270.68 153.80 C 270.86 154.11 270.95 154.45 270.95 154.80 C 270.95 155.16 270.86 155.49 270.68 155.80 L 255.62 181.85 Z M 201.62 181.78 C 201.23 182.16 200.76 182.35 200.20 182.35 L 180.60 182.35 C 180.04 182.35 179.57 182.16 179.18 181.78 C 178.79 181.38 178.60 180.91 178.60 180.35 C 178.60 179.79 178.79 179.32 179.18 178.92 C 179.57 178.54 180.04 178.35 180.60 178.35 L 200.20 178.35 C 200.76 178.35 201.23 178.54 201.62 178.92 C 202.01 179.32 202.20 179.79 202.20 180.35 C 202.20 180.91 202.01 181.38 201.62 181.78 Z M 253.90 126.70 C 254.26 126.70 254.59 126.79 254.90 126.97 C 255.21 127.15 255.45 127.39 255.62 127.70 L 261.02 137.05 C 261.30 137.53 261.37 138.04 261.22 138.57 C 261.08 139.10 260.77 139.50 260.30 139.78 C 259.82 140.05 259.31 140.12 258.77 139.97 C 258.25 139.83 257.85 139.52 257.57 139.05 L 252.75 130.70 L 224.90 130.70 L 211.00 154.80 L 218.78 168.25 C 219.05 168.73 219.12 169.24 218.97 169.78 C 218.83 170.30 218.53 170.70 218.05 170.97 C 217.57 171.25 217.06 171.32 216.53 171.17 C 216.00 171.03 215.60 170.72 215.32 170.25 L 206.97 155.80 C 206.79 155.49 206.70 155.15 206.70 154.80 C 206.70 154.44 206.79 154.11 206.97 153.80 L 222.03 127.70 C 222.20 127.39 222.44 127.15 222.75 126.97 C 223.06 126.79 223.40 126.70 223.75 126.70 L 253.90 126.70 Z M 53.38 217.03 C 53.77 216.64 54.24 216.45 54.80 216.45 L 213.55 216.45 C 214.11 216.45 214.58 216.64 214.97 217.03 C 215.36 217.42 215.55 217.89 215.55 218.45 C 215.55 219.01 215.36 219.48 214.97 219.88 C 214.58 220.26 214.11 220.45 213.55 220.45 L 54.80 220.45 C 54.24 220.45 53.77 220.26 53.38 219.88 C 52.99 219.48 52.80 219.01 52.80 218.45 C 52.80 217.89 52.99 217.42 53.38 217.03 Z M 20.43 217.03 C 20.81 217.42 21.00 217.89 21.00 218.45 C 21.00 219.01 20.81 219.48 20.43 219.88 C 20.03 220.26 19.56 220.45 19.00 220.45 L 9.80 220.45 C 9.24 220.45 8.77 220.26 8.38 219.88 C 7.99 219.48 7.80 219.01 7.80 218.45 C 7.80 217.89 7.99 217.42 8.38 217.03 C 8.77 216.64 9.24 216.45 9.80 216.45 L 19.00 216.45 C 19.56 216.45 20.03 216.64 20.43 217.03 Z M 25.68 219.88 C 25.29 219.48 25.10 219.01 25.10 218.45 C 25.10 217.89 25.29 217.42 25.68 217.03 C 26.07 216.64 26.54 216.45 27.10 216.45 L 43.25 216.45 C 43.81 216.45 44.28 216.64 44.67 217.03 C 45.06 217.42 45.25 217.89 45.25 218.45 C 45.25 219.01 45.06 219.48 44.67 219.88 C 44.28 220.26 43.81 220.45 43.25 220.45 L 27.10 220.45 C 26.54 220.45 26.07 220.26 25.68 219.88 Z M 95.92 200.88 C 96.32 200.49 96.79 200.30 97.35 200.30 L 114.65 200.30 C 115.21 200.30 115.68 200.49 116.08 200.88 C 116.46 201.27 116.65 201.74 116.65 202.30 C 116.65 202.86 116.46 203.33 116.08 203.72 C 115.68 204.11 115.21 204.30 114.65 204.30 L 97.35 204.30 C 96.79 204.30 96.32 204.11 95.92 203.72 C 95.54 203.33 95.35 202.86 95.35 202.30 C 95.35 201.74 95.54 201.27 95.92 200.88 Z M 67.35 182.35 C 66.79 182.35 66.32 182.16 65.92 181.78 C 65.54 181.38 65.35 180.91 65.35 180.35 C 65.35 179.79 65.54 179.32 65.92 178.93 C 66.32 178.54 66.79 178.35 67.35 178.35 L 75.40 178.35 C 75.96 178.35 76.43 178.54 76.83 178.93 C 77.21 179.32 77.40 179.79 77.40 180.35 C 77.40 180.91 77.21 181.38 76.83 181.78 C 76.43 182.16 75.96 182.35 75.40 182.35 L 67.35 182.35 Z M 98.45 182.35 L 84.65 182.35 C 84.09 182.35 83.62 182.16 83.22 181.78 C 82.84 181.38 82.65 180.91 82.65 180.35 C 82.65 179.79 82.84 179.32 83.22 178.93 C 83.62 178.54 84.09 178.35 84.65 178.35 L 98.45 178.35 C 99.01 178.35 99.48 178.54 99.88 178.93 C 100.26 179.32 100.45 179.79 100.45 180.35 C 100.45 180.91 100.26 181.38 99.88 181.78 C 99.48 182.16 99.01 182.35 98.45 182.35 Z M 776.75 222.05 C 777.31 222.05 777.78 222.24 778.17 222.62 C 778.56 223.02 778.75 223.49 778.75 224.05 C 778.75 224.61 778.56 225.08 778.17 225.47 C 777.78 225.86 777.31 226.05 776.75 226.05 L 762.95 226.05 C 762.39 226.05 761.92 225.86 761.52 225.47 C 761.14 225.08 760.95 224.61 760.95 224.05 C 760.95 223.49 761.14 223.02 761.52 222.62 C 761.92 222.24 762.39 222.05 762.95 222.05 L 776.75 222.05 Z M 795.48 225.47 C 795.08 225.86 794.61 226.05 794.05 226.05 L 786.00 226.05 C 785.44 226.05 784.97 225.86 784.58 225.47 C 784.19 225.08 784.00 224.61 784.00 224.05 C 784.00 223.49 784.19 223.02 784.58 222.62 C 784.97 222.24 785.44 222.05 786.00 222.05 L 794.05 222.05 C 794.61 222.05 795.08 222.24 795.48 222.62 C 795.86 223.02 796.05 223.49 796.05 224.05 C 796.05 224.60 795.86 225.08 795.48 225.47 Z M 822.30 183.95 C 822.86 183.95 823.33 184.14 823.73 184.53 C 824.11 184.92 824.30 185.39 824.30 185.95 C 824.30 186.51 824.11 186.98 823.73 187.38 C 823.33 187.76 822.86 187.95 822.30 187.95 L 806.15 187.95 C 805.59 187.95 805.12 187.76 804.72 187.38 C 804.34 186.98 804.15 186.51 804.15 185.95 C 804.15 185.39 804.34 184.92 804.72 184.53 C 805.12 184.14 805.59 183.95 806.15 183.95 L 822.30 183.95 Z M 839.60 183.95 C 840.16 183.95 840.63 184.14 841.03 184.53 C 841.41 184.92 841.60 185.39 841.60 185.95 C 841.60 186.51 841.41 186.98 841.03 187.38 C 840.63 187.76 840.16 187.95 839.60 187.95 L 830.40 187.95 C 829.84 187.95 829.37 187.76 828.97 187.38 C 828.59 186.98 828.40 186.51 828.40 185.95 C 828.40 185.39 828.59 184.92 828.97 184.53 C 829.37 184.14 829.84 183.95 830.40 183.95 L 839.60 183.95 Z M 681.23 222.62 C 681.62 222.24 682.09 222.05 682.65 222.05 L 749.05 222.05 C 749.61 222.05 750.08 222.24 750.48 222.62 C 750.86 223.02 751.05 223.49 751.05 224.05 C 751.05 224.61 750.86 225.08 750.48 225.47 C 750.08 225.86 749.61 226.05 749.05 226.05 L 682.65 226.05 C 682.09 226.05 681.62 225.86 681.22 225.47 C 680.84 225.08 680.65 224.61 680.65 224.05 C 680.65 223.49 680.84 223.02 681.23 222.62 Z M 626.65 277.48 C 626.34 277.65 626.00 277.75 625.65 277.75 L 595.50 277.75 C 595.15 277.75 594.81 277.66 594.50 277.48 C 594.19 277.30 593.95 277.06 593.77 276.75 L 590.47 271.10 C 590.20 270.62 590.13 270.11 590.27 269.58 C 590.41 269.05 590.72 268.65 591.20 268.38 C 591.68 268.10 592.19 268.03 592.72 268.18 C 593.25 268.32 593.65 268.62 593.92 269.10 L 596.65 273.75 L 624.50 273.75 L 628.58 266.68 C 628.86 266.21 629.26 265.91 629.80 265.78 C 630.33 265.63 630.83 265.70 631.30 265.98 C 631.78 266.26 632.09 266.67 632.23 267.20 C 632.37 267.74 632.30 268.25 632.03 268.73 L 627.38 276.78 C 627.20 277.07 626.96 277.31 626.65 277.48 Z M 595.50 221.60 L 617.75 221.60 C 618.31 221.60 618.78 221.79 619.17 222.18 C 619.56 222.57 619.75 223.04 619.75 223.60 C 619.75 224.16 619.56 224.63 619.17 225.03 C 618.78 225.41 618.31 225.60 617.75 225.60 L 596.65 225.60 L 582.75 249.70 L 585.62 254.70 C 585.90 255.17 585.97 255.67 585.83 256.20 C 585.68 256.74 585.38 257.14 584.90 257.43 C 584.43 257.70 583.93 257.77 583.40 257.63 C 582.87 257.49 582.46 257.18 582.17 256.70 L 578.72 250.70 C 578.54 250.39 578.45 250.06 578.45 249.70 C 578.45 249.35 578.54 249.01 578.72 248.70 L 593.77 222.60 C 593.95 222.29 594.19 222.05 594.50 221.88 C 594.81 221.69 595.14 221.60 595.50 221.60 Z M 633.23 239.57 C 633.37 239.05 633.67 238.65 634.15 238.38 C 634.63 238.10 635.14 238.03 635.67 238.18 C 636.20 238.32 636.60 238.62 636.88 239.10 L 642.42 248.70 C 642.61 249.01 642.70 249.34 642.70 249.70 C 642.70 250.06 642.61 250.39 642.42 250.70 L 636.88 260.30 C 636.59 260.78 636.18 261.09 635.65 261.23 C 635.12 261.37 634.62 261.30 634.15 261.03 C 633.67 260.75 633.37 260.34 633.22 259.80 C 633.08 259.27 633.15 258.77 633.42 258.30 L 638.40 249.70 L 633.42 241.10 C 633.15 240.62 633.08 240.11 633.23 239.57 Z M 582.45 76.50 C 581.78 77.20 580.95 77.55 579.95 77.55 C 578.98 77.55 578.13 77.20 577.40 76.50 C 576.73 75.83 576.40 75.00 576.40 74.00 C 576.40 73.07 576.73 72.22 577.40 71.45 C 578.13 70.78 578.98 70.45 579.95 70.45 C 580.95 70.45 581.78 70.78 582.45 71.45 C 583.15 72.22 583.50 73.07 583.50 74.00 C 583.50 75.00 583.15 75.83 582.45 76.50 Z M 568.95 71.45 C 569.65 72.22 570.00 73.07 570.00 74.00 C 570.00 75.00 569.65 75.83 568.95 76.50 C 568.28 77.20 567.45 77.55 566.45 77.55 C 565.48 77.55 564.63 77.20 563.90 76.50 C 563.23 75.83 562.90 75.00 562.90 74.00 C 562.90 73.07 563.23 72.22 563.90 71.45 C 564.63 70.78 565.48 70.45 566.45 70.45 C 567.45 70.45 568.28 70.78 568.95 71.45 Z M 549.40 74.00 C 549.40 73.07 549.73 72.22 550.40 71.45 C 551.13 70.78 551.98 70.45 552.95 70.45 C 553.95 70.45 554.78 70.78 555.45 71.45 C 556.15 72.22 556.50 73.07 556.50 74.00 C 556.50 75.00 556.15 75.83 555.45 76.50 C 554.78 77.20 553.95 77.55 552.95 77.55 C 551.98 77.55 551.13 77.20 550.40 76.50 C 549.73 75.83 549.40 75.00 549.40 74.00 Z M 369.32 315.32 C 369.71 315.72 369.90 316.19 369.90 316.75 C 369.90 317.31 369.71 317.78 369.32 318.18 C 368.93 318.56 368.46 318.75 367.90 318.75 L 362.85 318.75 C 362.29 318.75 361.82 318.56 361.42 318.18 C 361.04 317.78 360.85 317.31 360.85 316.75 C 360.85 316.19 361.04 315.72 361.42 315.32 C 361.82 314.94 362.29 314.75 362.85 314.75 L 367.90 314.75 C 368.46 314.75 368.93 314.94 369.32 315.32 Z M 396.32 337.32 C 395.93 337.71 395.46 337.90 394.90 337.90 L 384.55 337.90 C 383.99 337.90 383.52 337.71 383.12 337.32 C 382.74 336.93 382.55 336.46 382.55 335.90 C 382.55 335.34 382.74 334.87 383.12 334.47 C 383.52 334.09 383.99 333.90 384.55 333.90 L 394.90 333.90 C 395.46 333.90 395.93 334.09 396.32 334.47 C 396.71 334.87 396.90 335.34 396.90 335.90 C 396.90 336.46 396.71 336.93 396.32 337.32 Z M 401.05 316.75 C 401.05 317.31 400.86 317.78 400.48 318.18 C 400.08 318.56 399.61 318.75 399.05 318.75 L 382.90 318.75 C 382.34 318.75 381.87 318.56 381.47 318.18 C 381.09 317.78 380.90 317.31 380.90 316.75 C 380.90 316.19 381.09 315.72 381.47 315.32 C 381.87 314.94 382.34 314.75 382.90 314.75 L 399.05 314.75 C 399.61 314.75 400.08 314.94 400.47 315.32 C 400.86 315.72 401.05 316.19 401.05 316.75 Z M 444.02 337.32 C 443.63 337.71 443.16 337.90 442.60 337.90 L 408.00 337.90 C 407.44 337.90 406.97 337.71 406.57 337.32 C 406.19 336.93 406.00 336.46 406.00 335.90 C 406.00 335.34 406.19 334.87 406.57 334.47 C 406.97 334.09 407.44 333.90 408.00 333.90 L 442.60 333.90 C 443.16 333.90 443.63 334.09 444.03 334.47 C 444.41 334.87 444.60 335.34 444.60 335.90 C 444.60 336.46 444.41 336.93 444.02 337.32 Z M 562.52 313.80 C 562.37 313.27 562.43 312.76 562.70 312.28 C 562.97 311.79 563.37 311.48 563.90 311.33 C 564.43 311.17 564.94 311.23 565.42 311.50 L 569.97 314.05 C 570.46 314.32 570.77 314.72 570.92 315.25 C 571.08 315.78 571.02 316.29 570.75 316.78 C 570.48 317.26 570.08 317.57 569.55 317.73 C 569.02 317.88 568.51 317.82 568.02 317.55 L 563.47 315.00 C 562.99 314.73 562.68 314.33 562.52 313.80 Z M 563.23 307.75 C 562.87 307.33 562.71 306.85 562.75 306.30 C 562.79 305.75 563.03 305.29 563.45 304.93 L 566.90 301.93 C 567.32 301.57 567.80 301.41 568.35 301.45 C 568.90 301.49 569.36 301.73 569.72 302.15 C 570.08 302.57 570.24 303.05 570.20 303.60 C 570.15 304.15 569.92 304.61 569.50 304.97 L 566.05 307.97 C 565.63 308.33 565.15 308.49 564.60 308.45 C 564.05 308.40 563.59 308.17 563.23 307.75 Z M 550.27 313.90 L 555.52 311.05 C 556.01 310.78 556.52 310.72 557.05 310.87 C 557.58 311.02 557.98 311.34 558.25 311.82 C 558.52 312.31 558.58 312.82 558.42 313.35 C 558.27 313.88 557.96 314.28 557.47 314.55 L 552.22 317.40 C 551.74 317.67 551.23 317.73 550.70 317.57 C 550.17 317.42 549.77 317.11 549.50 316.62 C 549.23 316.14 549.17 315.63 549.33 315.10 C 549.48 314.57 549.79 314.17 550.27 313.90 Z M 552.70 300.57 C 552.75 300.03 553.00 299.58 553.42 299.22 C 553.85 298.86 554.33 298.70 554.88 298.75 C 555.42 298.80 555.87 299.03 556.23 299.45 L 559.48 303.25 C 559.83 303.68 559.99 304.17 559.95 304.72 C 559.90 305.27 559.65 305.72 559.23 306.07 C 558.80 306.44 558.32 306.59 557.78 306.55 C 557.23 306.50 556.78 306.27 556.42 305.85 L 553.17 302.05 C 552.82 301.62 552.66 301.13 552.70 300.57 Z M 541.23 167.28 C 541.37 166.75 541.67 166.35 542.15 166.07 C 542.63 165.80 543.14 165.73 543.67 165.88 C 544.20 166.02 544.60 166.32 544.88 166.80 L 564.62 201.10 C 564.81 201.41 564.90 201.75 564.90 202.10 C 564.90 202.46 564.80 202.79 564.62 203.10 L 498.48 317.75 C 498.30 318.06 498.06 318.30 497.75 318.48 C 497.44 318.66 497.10 318.75 496.75 318.75 L 409.40 318.75 C 408.84 318.75 408.37 318.56 407.97 318.18 C 407.59 317.78 407.40 317.31 407.40 316.75 C 407.40 316.19 407.59 315.72 407.97 315.32 C 408.37 314.94 408.84 314.75 409.40 314.75 L 495.60 314.75 L 560.60 202.10 L 541.42 168.80 C 541.15 168.32 541.08 167.81 541.23 167.28 Z M 534.38 155.40 C 534.53 154.87 534.86 154.47 535.35 154.20 C 535.83 153.93 536.33 153.87 536.85 154.03 C 537.38 154.18 537.78 154.49 538.05 154.97 L 539.15 156.92 C 539.42 157.41 539.48 157.92 539.33 158.45 C 539.17 158.98 538.86 159.38 538.38 159.65 C 537.89 159.92 537.38 159.98 536.85 159.82 C 536.32 159.67 535.92 159.35 535.65 158.87 L 534.55 156.92 C 534.28 156.44 534.22 155.93 534.38 155.40 Z M 549.42 143.32 C 549.57 142.80 549.87 142.40 550.35 142.12 C 550.83 141.85 551.34 141.78 551.88 141.93 C 552.40 142.07 552.80 142.37 553.08 142.85 L 563.67 161.15 C 563.95 161.63 564.02 162.14 563.88 162.68 C 563.73 163.20 563.43 163.60 562.95 163.88 C 562.47 164.15 561.96 164.22 561.42 164.07 C 560.90 163.93 560.50 163.62 560.23 163.15 L 549.62 144.85 C 549.35 144.37 549.28 143.86 549.42 143.32 Z M 546.88 132.10 C 547.15 132.58 547.22 133.09 547.08 133.62 C 546.93 134.15 546.63 134.55 546.15 134.82 C 545.67 135.10 545.16 135.17 544.62 135.03 C 544.10 134.88 543.70 134.58 543.42 134.10 L 539.33 127.00 C 539.05 126.52 538.98 126.01 539.12 125.47 C 539.27 124.95 539.57 124.55 540.05 124.28 C 540.53 124.00 541.04 123.93 541.58 124.08 C 542.10 124.22 542.50 124.52 542.77 125.00 L 546.88 132.10 Z M 323.43 313.65 C 323.94 313.45 324.44 313.45 324.95 313.67 C 325.46 313.89 325.82 314.26 326.02 314.77 L 328.27 320.67 C 328.47 321.19 328.45 321.69 328.22 322.20 C 328.00 322.70 327.64 323.05 327.12 323.25 C 326.61 323.45 326.10 323.44 325.60 323.22 C 325.09 323.00 324.73 322.64 324.52 322.12 L 322.27 316.22 C 322.08 315.71 322.10 315.20 322.32 314.70 C 322.55 314.20 322.91 313.85 323.43 313.65 Z M 326.68 307.98 L 332.38 305.33 C 332.88 305.10 333.38 305.08 333.90 305.28 C 334.42 305.47 334.79 305.82 335.02 306.33 C 335.25 306.83 335.27 307.34 335.07 307.85 C 334.88 308.37 334.53 308.74 334.02 308.98 L 328.32 311.62 C 327.82 311.85 327.31 311.87 326.80 311.68 C 326.28 311.48 325.91 311.13 325.68 310.62 C 325.45 310.12 325.43 309.62 325.62 309.10 C 325.82 308.58 326.17 308.21 326.68 307.98 Z M 318.27 312.43 C 318.82 312.50 319.26 312.76 319.60 313.20 C 319.93 313.64 320.05 314.13 319.97 314.68 C 319.90 315.22 319.64 315.66 319.20 316.00 L 312.10 321.40 C 311.66 321.73 311.17 321.85 310.62 321.77 C 310.08 321.70 309.64 321.44 309.30 321.00 C 308.97 320.56 308.84 320.07 308.92 319.52 C 309.00 318.98 309.26 318.54 309.70 318.20 L 316.80 312.80 C 317.24 312.47 317.73 312.35 318.27 312.43 Z M 309.45 307.15 C 308.95 306.92 308.61 306.54 308.43 306.02 C 308.24 305.51 308.26 305.00 308.50 304.50 C 308.73 304.00 309.11 303.66 309.62 303.48 C 310.14 303.29 310.65 303.31 311.15 303.55 L 317.30 306.50 C 317.80 306.74 318.14 307.11 318.32 307.62 C 318.51 308.14 318.49 308.65 318.25 309.15 C 318.01 309.65 317.64 309.99 317.12 310.17 C 316.61 310.36 316.10 310.34 315.60 310.10 L 309.45 307.15 Z M 319.90 299.65 C 319.90 299.09 320.09 298.62 320.47 298.22 C 320.87 297.84 321.34 297.65 321.90 297.65 C 322.46 297.65 322.93 297.84 323.32 298.22 C 323.71 298.62 323.90 299.09 323.90 299.65 L 323.90 304.10 C 323.90 304.66 323.71 305.13 323.32 305.52 C 322.93 305.91 322.46 306.10 321.90 306.10 C 321.34 306.10 320.87 305.91 320.47 305.52 C 320.09 305.13 319.90 304.66 319.90 304.10 L 319.90 299.65 Z M 302.52 272.30 C 302.25 271.82 302.18 271.31 302.32 270.78 C 302.47 270.25 302.77 269.85 303.25 269.58 C 303.73 269.30 304.24 269.23 304.77 269.38 C 305.30 269.52 305.70 269.82 305.97 270.30 L 310.07 277.40 C 310.35 277.88 310.42 278.39 310.27 278.93 C 310.13 279.45 309.83 279.85 309.35 280.13 C 308.87 280.40 308.36 280.47 307.82 280.33 C 307.30 280.19 306.90 279.88 306.62 279.40 L 302.52 272.30 Z M 285.73 243.25 C 285.45 242.77 285.38 242.26 285.53 241.72 C 285.67 241.20 285.97 240.80 286.45 240.53 C 286.93 240.25 287.44 240.18 287.98 240.33 C 288.50 240.47 288.90 240.78 289.18 241.25 L 299.78 259.55 C 300.05 260.03 300.12 260.54 299.98 261.08 C 299.83 261.60 299.53 262.00 299.05 262.28 C 298.57 262.55 298.06 262.62 297.53 262.48 C 297.00 262.33 296.60 262.03 296.33 261.55 L 285.73 243.25 Z M 315.02 248.97 C 314.88 249.50 314.58 249.90 314.10 250.18 C 313.62 250.45 313.11 250.52 312.57 250.38 C 312.05 250.23 311.65 249.93 311.38 249.45 L 310.27 247.50 C 310.00 247.02 309.93 246.51 310.07 245.97 C 310.21 245.45 310.52 245.05 311.00 244.78 C 311.48 244.50 311.99 244.43 312.52 244.58 C 313.05 244.72 313.45 245.03 313.72 245.50 L 314.82 247.45 C 315.10 247.93 315.17 248.44 315.02 248.97 Z M 368.48 30.82 C 368.87 30.44 369.34 30.25 369.90 30.25 C 370.46 30.25 370.93 30.44 371.33 30.82 C 371.71 31.22 371.90 31.69 371.90 32.25 L 371.90 39.05 L 378.70 39.05 C 379.26 39.05 379.73 39.24 380.13 39.62 C 380.51 40.02 380.70 40.49 380.70 41.05 C 380.70 41.61 380.51 42.08 380.13 42.48 C 379.73 42.86 379.26 43.05 378.70 43.05 L 371.90 43.05 L 371.90 49.85 C 371.90 50.41 371.71 50.88 371.33 51.28 C 370.93 51.66 370.46 51.85 369.90 51.85 C 369.34 51.85 368.87 51.66 368.48 51.28 C 368.09 50.88 367.90 50.41 367.90 49.85 L 367.90 43.05 L 361.10 43.05 C 360.54 43.05 360.07 42.86 359.68 42.48 C 359.29 42.08 359.10 41.61 359.10 41.05 C 359.10 40.49 359.29 40.02 359.68 39.62 C 360.07 39.24 360.54 39.05 361.10 39.05 L 367.90 39.05 L 367.90 32.25 C 367.90 31.69 368.09 31.22 368.48 30.82 Z M 287.12 100.38 C 287.27 99.85 287.57 99.45 288.05 99.17 C 288.53 98.90 289.04 98.83 289.57 98.97 C 290.10 99.12 290.50 99.42 290.77 99.90 L 293.32 104.40 C 293.60 104.88 293.67 105.39 293.52 105.92 C 293.38 106.45 293.08 106.85 292.60 107.12 C 292.12 107.40 291.61 107.47 291.07 107.33 C 290.55 107.18 290.15 106.88 289.88 106.40 L 287.32 101.90 C 287.05 101.42 286.98 100.91 287.12 100.38 Z M 285.07 90.05 C 285.35 90.53 285.42 91.04 285.27 91.58 C 285.13 92.10 284.83 92.50 284.35 92.78 C 283.87 93.05 283.36 93.12 282.82 92.97 C 282.30 92.83 281.90 92.52 281.62 92.05 L 270.02 72.00 C 269.75 71.52 269.68 71.01 269.82 70.47 C 269.97 69.95 270.27 69.55 270.75 69.28 C 271.23 69.00 271.74 68.93 272.27 69.08 C 272.80 69.22 273.20 69.53 273.47 70.00 L 285.07 90.05 Z" fill="#9ba8d5" fill-rule="evenodd" node-id="21" stroke="none" target-height="307.65" target-width="833.8" target-x="7.8" target-y="30.25"></path><g node-id="27"><path d="M 419.05 254.40 C 418.40 254.84 417.69 255.00 416.93 254.88 C 416.16 254.75 415.53 254.37 415.05 253.75 C 405.01 240.98 397.35 235.93 392.07 238.60 C 381.88 249.71 371.67 257.22 361.45 261.12 L 361.45 264.45 C 361.45 265.95 361.61 267.37 361.95 268.70 L 361.95 268.72 C 362.70 271.63 364.21 274.21 366.47 276.47 C 369.82 279.82 373.83 281.50 378.50 281.50 L 470.95 281.50 C 475.65 281.50 479.68 279.82 483.02 276.47 C 486.34 273.16 488.00 269.15 488.00 264.45 L 488.00 233.72 C 477.01 228.49 468.98 219.88 463.90 207.90 C 461.84 206.82 459.65 207.06 457.32 208.60 C 453.87 210.97 450.18 215.57 446.25 222.40 C 437.43 237.59 428.36 248.26 419.05 254.40 Z M 422.40 193.90 L 422.40 190.95 C 422.40 190.12 422.69 189.41 423.27 188.82 C 423.86 188.24 424.57 187.95 425.40 187.95 C 426.23 187.95 426.94 188.24 427.52 188.82 C 428.11 189.41 428.40 190.12 428.40 190.95 L 428.40 193.90 C 428.40 194.73 428.11 195.44 427.52 196.03 C 426.94 196.61 426.23 196.90 425.40 196.90 C 424.57 196.90 423.86 196.61 423.27 196.03 C 422.69 195.44 422.40 194.73 422.40 193.90 Z M 355.45 140.00 C 355.44 133.67 357.70 128.25 362.22 123.72 C 366.75 119.20 372.17 116.95 378.50 116.95 L 470.95 116.95 C 477.31 116.95 482.75 119.21 487.27 123.72 L 487.27 123.75 C 491.76 128.27 494.00 133.68 494.00 140.00 L 494.00 231.72 C 494.00 231.78 494.00 231.83 494.00 231.88 L 494.00 264.45 C 494.00 270.81 491.76 276.24 487.27 280.72 C 482.75 285.24 477.31 287.50 470.95 287.50 L 378.50 287.50 C 372.17 287.50 366.75 285.25 362.23 280.72 C 359.17 277.66 357.14 274.15 356.15 270.20 C 355.69 268.40 355.45 266.48 355.45 264.45 L 355.45 140.00 Z M 366.48 127.97 C 363.13 131.32 361.45 135.33 361.45 140.00 L 361.45 254.62 C 370.27 250.72 379.09 243.92 387.93 234.22 C 388.10 234.05 388.29 233.89 388.50 233.75 C 395.96 228.31 405.78 233.00 417.95 247.82 C 425.81 241.86 433.51 232.39 441.05 219.40 C 445.59 211.53 449.90 206.27 454.00 203.62 C 458.98 200.32 463.65 200.24 468.03 203.40 C 468.50 203.74 468.86 204.18 469.08 204.72 C 473.13 214.71 479.44 222.12 488.00 226.95 L 488.00 140.00 C 488.00 135.32 486.34 131.30 483.03 127.95 L 483.03 127.97 C 479.68 124.63 475.66 122.95 470.95 122.95 L 378.50 122.95 C 373.83 122.95 369.82 124.63 366.48 127.97 Z M 417.70 148.25 L 417.75 148.18 C 415.71 150.30 414.69 152.84 414.70 155.80 C 414.70 156.47 414.70 157.08 414.70 157.65 C 414.70 158.48 414.41 159.19 413.82 159.78 C 413.24 160.36 412.53 160.65 411.70 160.65 C 410.87 160.65 410.16 160.36 409.57 159.78 C 408.99 159.19 408.70 158.48 408.70 157.65 C 408.70 157.08 408.70 156.47 408.70 155.80 C 408.70 151.23 410.29 147.30 413.45 144.03 C 413.47 144.00 413.49 143.98 413.50 143.95 C 416.86 140.68 420.82 139.04 425.40 139.05 C 430.05 139.06 433.97 140.72 437.15 144.03 L 437.10 143.95 C 440.48 147.25 442.16 151.20 442.15 155.80 C 442.14 160.48 440.48 164.39 437.17 167.55 C 437.13 167.59 437.09 167.64 437.05 167.68 C 435.04 169.79 432.76 171.22 430.22 171.98 L 430.20 171.98 C 429.62 172.15 429.01 172.29 428.40 172.40 L 428.40 179.15 C 428.40 179.98 428.11 180.69 427.52 181.28 C 426.94 181.86 426.23 182.15 425.40 182.15 C 424.57 182.15 423.86 181.86 423.27 181.28 C 422.69 180.69 422.40 179.98 422.40 179.15 L 422.40 169.65 C 422.40 168.82 422.69 168.12 423.27 167.53 C 423.86 166.94 424.57 166.65 425.40 166.65 C 426.50 166.66 427.53 166.51 428.50 166.23 L 428.48 166.23 C 430.09 165.73 431.54 164.81 432.83 163.45 C 432.87 163.41 432.91 163.37 432.95 163.33 C 435.09 161.31 436.16 158.80 436.15 155.80 C 436.14 152.87 435.06 150.36 432.90 148.25 C 432.89 148.23 432.87 148.20 432.85 148.18 C 430.83 146.09 428.35 145.05 425.40 145.05 C 422.44 145.06 419.88 146.12 417.70 148.25 Z" fill="url(#SVGID_1_)" fill-rule="evenodd" group-id="1" node-id="25" stroke="none" target-height="170.548" target-width="138.54898" target-x="355.45" target-y="116.951"></path></g></svg>