<svg height="369" legacy-metrics="false" node-id="1" sillyvg="true" template-height="369" template-width="850" version="1.1" viewBox="0 0 850 369" width="850" xmlns="http://www.w3.org/2000/svg" xmlns:xlink="http://www.w3.org/1999/xlink"><defs node-id="21"><linearGradient gradientUnits="userSpaceOnUse" id="SVGID_1_" node-id="7" x1="425.2075" x2="425.2075" y1="309.4004" y2="88.7505"><stop offset="0" stop-color="#478ccb"></stop><stop offset="1" stop-color="#6aabde"></stop></linearGradient><linearGradient gradientUnits="userSpaceOnUse" id="SVGID_2_" node-id="11" x1="386.4004" x2="386.4004" y1="309.4238" y2="88.7766"><stop offset="0" stop-color="#478ccb" stop-opacity="0.702"></stop><stop offset="1" stop-color="#6aabde" stop-opacity="0.702"></stop></linearGradient><linearGradient gradientUnits="userSpaceOnUse" id="SVGID_3_" node-id="16" x1="437.2451" x2="437.2451" y1="309.4248" y2="88.7761"><stop offset="0" stop-color="#478ccb" stop-opacity="0.702"></stop><stop offset="1" stop-color="#6aabde" stop-opacity="0.702"></stop></linearGradient></defs><g node-id="57"><path d="M 136.10 309.55 C 136.62 309.38 137.12 309.42 137.60 309.68 C 138.09 309.92 138.43 310.31 138.60 310.82 C 138.77 311.35 138.73 311.86 138.47 312.35 C 138.22 312.84 137.83 313.18 137.30 313.35 C 132.86 314.77 128.55 316.23 124.38 317.72 C 123.86 317.91 123.35 317.89 122.85 317.65 C 122.35 317.42 122.01 317.04 121.83 316.52 C 121.64 316.01 121.66 315.50 121.90 315.00 C 122.14 314.50 122.51 314.16 123.03 313.98 C 127.25 312.47 131.61 310.99 136.10 309.55 Z M 104.35 323.07 C 104.15 322.56 104.16 322.06 104.38 321.55 C 104.60 321.04 104.96 320.68 105.47 320.48 C 107.62 319.64 109.79 318.81 112.00 317.98 C 112.52 317.78 113.02 317.80 113.53 318.03 C 114.03 318.26 114.38 318.63 114.58 319.15 C 114.77 319.67 114.75 320.17 114.53 320.68 C 114.29 321.18 113.92 321.53 113.40 321.73 C 111.21 322.56 109.05 323.39 106.92 324.23 C 106.41 324.42 105.91 324.40 105.40 324.18 C 104.90 323.95 104.55 323.59 104.35 323.07 Z M 149.53 279.18 C 149.14 278.78 148.95 278.31 148.95 277.75 C 148.95 277.19 149.14 276.72 149.53 276.32 C 149.92 275.94 150.39 275.75 150.95 275.75 C 151.51 275.75 151.98 275.94 152.38 276.32 L 155.68 279.62 C 156.06 280.02 156.25 280.49 156.25 281.05 C 156.25 281.61 156.06 282.08 155.68 282.48 C 155.28 282.86 154.81 283.05 154.25 283.05 C 153.69 283.05 153.22 282.86 152.82 282.48 L 149.53 279.18 Z M 143.90 275.62 C 144.29 276.01 144.49 276.48 144.50 277.02 C 144.50 277.58 144.31 278.05 143.93 278.45 L 140.57 281.80 C 140.19 282.19 139.72 282.39 139.18 282.40 C 138.62 282.41 138.15 282.21 137.75 281.83 C 137.35 281.44 137.16 280.98 137.15 280.43 C 137.15 279.88 137.34 279.40 137.72 279.00 L 141.07 275.65 C 141.46 275.26 141.93 275.06 142.47 275.05 C 143.03 275.05 143.50 275.24 143.90 275.62 Z M 143.30 268.10 C 143.30 268.66 143.11 269.13 142.72 269.53 C 142.33 269.91 141.86 270.10 141.30 270.10 C 140.74 270.10 140.27 269.91 139.88 269.53 L 137.28 266.93 C 136.89 266.53 136.70 266.06 136.70 265.50 C 136.70 264.94 136.89 264.47 137.28 264.07 C 137.67 263.69 138.14 263.50 138.70 263.50 C 139.26 263.50 139.73 263.69 140.12 264.07 L 142.72 266.68 C 143.11 267.07 143.30 267.54 143.30 268.10 Z M 152.80 264.70 C 153.35 264.69 153.83 264.87 154.22 265.25 C 154.63 265.63 154.84 266.10 154.85 266.65 C 154.86 267.20 154.68 267.67 154.30 268.07 L 151.80 270.62 C 151.42 271.03 150.95 271.23 150.40 271.25 C 149.85 271.26 149.38 271.08 148.97 270.70 C 148.57 270.32 148.37 269.85 148.35 269.30 C 148.34 268.75 148.52 268.28 148.90 267.88 L 151.40 265.32 C 151.78 264.92 152.25 264.71 152.80 264.70 Z M 206.05 320.73 C 206.58 320.57 207.09 320.63 207.57 320.90 L 212.12 323.45 C 212.61 323.72 212.92 324.12 213.07 324.65 C 213.23 325.18 213.17 325.69 212.90 326.18 C 212.63 326.66 212.23 326.98 211.70 327.12 C 211.17 327.28 210.66 327.22 210.18 326.95 L 205.62 324.40 C 205.14 324.13 204.83 323.73 204.68 323.20 C 204.52 322.67 204.58 322.16 204.85 321.68 C 205.12 321.19 205.52 320.88 206.05 320.73 Z M 211.88 311.55 C 212.23 311.97 212.39 312.45 212.35 313.00 C 212.31 313.55 212.07 314.01 211.65 314.38 L 208.20 317.38 C 207.78 317.73 207.30 317.89 206.75 317.85 C 206.20 317.81 205.74 317.57 205.38 317.15 C 205.02 316.73 204.86 316.25 204.90 315.70 C 204.95 315.15 205.18 314.69 205.60 314.33 L 209.05 311.33 C 209.47 310.97 209.95 310.81 210.50 310.85 C 211.05 310.89 211.51 311.13 211.88 311.55 Z M 199.20 320.27 C 199.73 320.43 200.13 320.74 200.40 321.22 C 200.67 321.71 200.73 322.22 200.57 322.75 C 200.42 323.28 200.11 323.68 199.62 323.95 L 194.38 326.80 C 193.89 327.07 193.38 327.13 192.85 326.97 C 192.32 326.82 191.92 326.51 191.65 326.02 C 191.38 325.54 191.32 325.03 191.47 324.50 C 191.63 323.97 191.94 323.57 192.43 323.30 L 197.68 320.45 C 198.16 320.18 198.67 320.12 199.20 320.27 Z M 198.57 315.25 L 195.32 311.45 C 194.97 311.02 194.81 310.53 194.85 309.97 C 194.90 309.43 195.15 308.98 195.57 308.62 C 196.00 308.26 196.48 308.11 197.03 308.15 C 197.57 308.19 198.02 308.43 198.38 308.85 L 201.62 312.65 C 201.98 313.08 202.14 313.57 202.10 314.12 C 202.05 314.67 201.81 315.12 201.38 315.47 C 200.95 315.83 200.47 315.99 199.93 315.95 C 199.38 315.90 198.93 315.67 198.57 315.25 Z M 296.62 316.20 L 294.12 309.65 C 293.93 309.13 293.95 308.63 294.18 308.12 C 294.41 307.62 294.78 307.27 295.30 307.07 C 295.81 306.88 296.32 306.90 296.82 307.12 C 297.33 307.36 297.68 307.73 297.88 308.25 L 300.38 314.80 C 300.57 315.31 300.55 315.82 300.32 316.32 C 300.09 316.83 299.72 317.18 299.20 317.38 C 298.69 317.57 298.18 317.55 297.68 317.32 C 297.17 317.09 296.82 316.72 296.62 316.20 Z M 281.02 315.73 C 280.48 315.65 280.04 315.39 279.70 314.95 C 279.37 314.51 279.25 314.02 279.32 313.48 C 279.40 312.93 279.66 312.49 280.10 312.15 L 288.00 306.15 C 288.44 305.82 288.93 305.70 289.47 305.78 C 290.02 305.85 290.46 306.11 290.80 306.55 C 291.13 306.99 291.25 307.48 291.17 308.03 C 291.10 308.57 290.84 309.01 290.40 309.35 L 282.50 315.35 C 282.06 315.68 281.57 315.81 281.02 315.73 Z M 297.93 303.43 C 297.70 302.92 297.68 302.41 297.88 301.90 C 298.07 301.38 298.42 301.01 298.93 300.78 L 305.28 297.83 C 305.78 297.60 306.29 297.58 306.80 297.78 C 307.32 297.97 307.69 298.32 307.93 298.83 C 308.15 299.33 308.17 299.84 307.98 300.35 C 307.78 300.87 307.43 301.24 306.93 301.48 L 300.57 304.43 C 300.07 304.65 299.56 304.67 299.05 304.48 C 298.53 304.28 298.16 303.93 297.93 303.43 Z M 289.25 301.82 C 289.01 302.32 288.62 302.67 288.10 302.85 C 287.58 303.03 287.07 302.99 286.58 302.75 L 279.78 299.45 C 279.28 299.20 278.94 298.82 278.75 298.30 C 278.57 297.78 278.61 297.27 278.85 296.77 C 279.10 296.27 279.48 295.93 280.00 295.75 C 280.52 295.57 281.03 295.61 281.53 295.85 L 288.33 299.15 C 288.82 299.39 289.17 299.78 289.35 300.30 C 289.53 300.82 289.50 301.33 289.25 301.82 Z M 293.55 289.35 C 294.11 289.35 294.58 289.54 294.98 289.93 C 295.36 290.32 295.55 290.79 295.55 291.35 L 295.55 296.30 C 295.55 296.86 295.36 297.33 294.98 297.73 C 294.58 298.11 294.11 298.30 293.55 298.30 C 292.99 298.30 292.52 298.11 292.12 297.73 C 291.74 297.33 291.55 296.86 291.55 296.30 L 291.55 291.35 C 291.55 290.79 291.74 290.32 292.12 289.93 C 292.52 289.54 292.99 289.35 293.55 289.35 Z M 274.77 246.03 C 272.97 244.21 270.80 243.30 268.25 243.30 C 265.72 243.30 263.52 244.21 261.65 246.03 L 261.67 246.03 C 259.86 247.83 258.95 250.00 258.95 252.55 C 258.95 255.12 259.86 257.32 261.67 259.12 L 261.65 259.12 C 263.52 260.94 265.72 261.85 268.25 261.85 C 270.80 261.85 272.97 260.94 274.77 259.12 C 276.59 257.32 277.50 255.12 277.50 252.55 C 277.50 250.00 276.59 247.83 274.77 246.03 Z M 268.25 239.30 C 271.90 239.30 275.03 240.59 277.62 243.18 C 280.21 245.77 281.50 248.90 281.50 252.55 C 281.50 256.24 280.21 259.38 277.62 261.98 C 275.03 264.56 271.90 265.86 268.25 265.85 C 264.65 265.85 261.51 264.56 258.85 261.98 L 258.83 261.98 C 256.24 259.38 254.95 256.24 254.95 252.55 C 254.95 248.90 256.24 245.77 258.83 243.18 L 258.85 243.18 C 261.51 240.59 264.65 239.30 268.25 239.30 Z M 318.48 276.07 C 318.90 276.43 319.15 276.88 319.20 277.43 C 319.24 277.97 319.09 278.45 318.73 278.88 C 318.37 279.30 317.92 279.55 317.38 279.60 C 255.39 284.75 199.69 294.68 150.28 309.38 C 149.75 309.53 149.24 309.47 148.75 309.20 C 148.26 308.94 147.94 308.55 147.78 308.02 C 147.62 307.50 147.68 306.99 147.95 306.50 C 148.21 306.01 148.60 305.69 149.12 305.52 C 198.78 290.75 254.74 280.78 317.02 275.60 C 317.57 275.56 318.05 275.71 318.48 276.07 Z M 254.88 183.62 C 254.49 183.23 254.30 182.76 254.30 182.20 C 254.30 181.64 254.49 181.17 254.88 180.78 C 255.27 180.39 255.74 180.20 256.30 180.20 L 263.10 180.20 L 263.10 173.40 C 263.10 172.84 263.29 172.37 263.68 171.97 C 264.07 171.59 264.54 171.40 265.10 171.40 C 265.66 171.40 266.13 171.59 266.53 171.97 C 266.91 172.37 267.10 172.84 267.10 173.40 L 267.10 180.20 L 273.90 180.20 C 274.46 180.20 274.93 180.39 275.33 180.78 C 275.71 181.17 275.90 181.64 275.90 182.20 C 275.90 182.76 275.71 183.23 275.33 183.62 C 274.93 184.01 274.46 184.20 273.90 184.20 L 267.10 184.20 L 267.10 191.00 C 267.10 191.56 266.91 192.03 266.53 192.43 C 266.13 192.81 265.66 193.00 265.10 193.00 C 264.54 193.00 264.07 192.81 263.68 192.43 C 263.29 192.03 263.10 191.56 263.10 191.00 L 263.10 184.20 L 256.30 184.20 C 255.74 184.20 255.27 184.01 254.88 183.62 Z M 219.30 225.55 C 219.86 225.55 220.33 225.74 220.72 226.12 C 221.11 226.52 221.30 226.99 221.30 227.55 L 221.30 236.55 L 230.30 236.55 C 230.86 236.55 231.33 236.74 231.72 237.12 C 232.11 237.52 232.30 237.99 232.30 238.55 C 232.30 239.11 232.11 239.58 231.72 239.97 C 231.33 240.36 230.86 240.55 230.30 240.55 L 221.30 240.55 L 221.30 249.55 C 221.30 250.11 221.11 250.58 220.72 250.97 C 220.33 251.36 219.86 251.55 219.30 251.55 C 218.74 251.55 218.27 251.36 217.88 250.97 C 217.49 250.58 217.30 250.11 217.30 249.55 L 217.30 240.55 L 208.30 240.55 C 207.74 240.55 207.27 240.36 206.88 239.97 C 206.49 239.58 206.30 239.11 206.30 238.55 C 206.30 237.99 206.49 237.52 206.88 237.12 C 207.27 236.74 207.74 236.55 208.30 236.55 L 217.30 236.55 L 217.30 227.55 C 217.30 226.99 217.49 226.52 217.88 226.12 C 218.27 225.74 218.74 225.55 219.30 225.55 Z M 248.03 109.92 C 248.41 110.32 248.60 110.79 248.60 111.35 L 248.60 112.70 C 248.60 113.26 248.41 113.73 248.03 114.13 C 247.63 114.51 247.16 114.70 246.60 114.70 C 246.04 114.70 245.57 114.51 245.17 114.13 C 244.79 113.73 244.60 113.26 244.60 112.70 L 244.60 111.35 C 244.60 110.79 244.79 110.32 245.17 109.92 C 245.57 109.54 246.04 109.35 246.60 109.35 C 247.16 109.35 247.63 109.54 248.03 109.92 Z M 252.40 89.38 L 252.42 89.40 C 254.08 91.02 254.90 92.97 254.90 95.25 C 254.90 97.56 254.08 99.50 252.45 101.08 C 252.43 101.10 252.40 101.13 252.38 101.15 C 251.38 102.17 250.25 102.87 249.00 103.25 L 248.97 103.28 C 248.85 103.31 248.73 103.34 248.60 103.38 L 248.60 105.95 C 248.60 106.51 248.41 106.98 248.03 107.38 C 247.63 107.76 247.16 107.95 246.60 107.95 C 246.04 107.95 245.57 107.76 245.18 107.38 C 244.79 106.98 244.60 106.51 244.60 105.95 L 244.60 101.60 C 244.60 101.04 244.79 100.57 245.18 100.17 C 245.57 99.79 246.04 99.60 246.60 99.60 C 247.03 99.60 247.44 99.54 247.83 99.42 L 247.80 99.45 C 248.45 99.24 249.03 98.86 249.55 98.33 C 249.57 98.30 249.60 98.28 249.62 98.25 C 250.48 97.44 250.90 96.44 250.90 95.25 C 250.89 94.07 250.46 93.06 249.60 92.22 L 249.57 92.20 C 248.76 91.37 247.77 90.95 246.60 90.95 C 245.42 90.95 244.39 91.37 243.53 92.20 L 243.50 92.22 C 242.69 93.07 242.30 94.07 242.30 95.25 C 242.30 95.55 242.30 95.83 242.30 96.10 C 242.30 96.66 242.11 97.13 241.72 97.53 C 241.33 97.91 240.86 98.10 240.30 98.10 C 239.74 98.10 239.27 97.91 238.88 97.53 C 238.49 97.13 238.30 96.66 238.30 96.10 C 238.30 95.83 238.30 95.55 238.30 95.25 C 238.31 92.97 239.10 91.02 240.68 89.40 L 240.70 89.38 C 242.36 87.76 244.33 86.95 246.60 86.95 C 248.88 86.95 250.82 87.76 252.40 89.38 Z M 272.10 84.38 L 272.12 84.38 C 279.68 88.82 283.40 94.23 283.30 100.60 C 283.40 106.97 279.67 112.36 272.10 116.78 C 271.56 117.09 271.01 117.40 270.45 117.70 L 270.45 127.75 C 270.45 128.26 270.29 128.70 269.95 129.08 C 269.61 129.45 269.18 129.67 268.68 129.72 C 268.17 129.79 267.71 129.67 267.30 129.38 L 257.13 122.12 C 251.93 122.74 248.37 123.05 246.45 123.05 C 236.41 123.05 227.86 120.96 220.78 116.78 L 220.80 116.78 C 213.24 112.36 209.50 106.97 209.60 100.60 C 209.50 94.23 213.22 88.82 220.78 84.38 L 220.80 84.38 C 227.87 80.23 236.42 78.15 246.45 78.15 C 256.48 78.15 265.03 80.23 272.10 84.38 Z M 270.07 87.83 L 270.10 87.83 C 263.57 84.04 255.69 82.15 246.45 82.15 C 237.21 82.15 229.33 84.04 222.80 87.83 L 222.82 87.83 C 216.78 91.38 213.70 95.64 213.60 100.60 C 213.70 105.56 216.76 109.80 222.80 113.33 L 222.82 113.33 C 229.34 117.14 237.22 119.05 246.45 119.05 C 248.37 119.05 252.02 118.72 257.40 118.08 C 257.91 118.01 258.38 118.13 258.80 118.42 L 266.45 123.88 L 266.45 116.50 C 266.45 116.13 266.55 115.79 266.75 115.47 C 266.94 115.15 267.20 114.90 267.52 114.72 C 268.40 114.28 269.25 113.81 270.10 113.33 C 276.13 109.80 279.20 105.56 279.30 100.60 C 279.19 95.64 276.12 91.38 270.07 87.83 Z M 727.85 318.10 C 727.61 317.60 727.59 317.09 727.78 316.58 C 727.96 316.06 728.30 315.69 728.80 315.45 C 729.30 315.21 729.81 315.19 730.33 315.38 C 735.05 317.05 739.59 318.76 743.95 320.50 C 744.46 320.71 744.83 321.07 745.05 321.58 C 745.26 322.08 745.26 322.59 745.05 323.10 C 744.84 323.61 744.49 323.98 743.98 324.20 C 743.47 324.41 742.96 324.41 742.45 324.20 C 738.14 322.48 733.65 320.78 728.98 319.13 C 728.46 318.94 728.08 318.60 727.85 318.10 Z M 687.67 302.57 C 688.15 302.30 688.65 302.23 689.17 302.38 C 693.92 303.68 698.64 305.02 703.33 306.43 L 703.35 306.45 C 705.18 307.02 707.02 307.58 708.85 308.15 C 712.76 309.38 716.57 310.62 720.27 311.85 C 720.79 312.02 721.18 312.36 721.42 312.85 C 721.68 313.34 721.72 313.85 721.55 314.37 C 721.38 314.89 721.04 315.28 720.55 315.52 C 720.05 315.78 719.55 315.82 719.02 315.65 C 715.33 314.42 711.54 313.18 707.65 311.95 C 705.82 311.38 703.98 310.81 702.15 310.25 L 702.17 310.27 C 697.52 308.87 692.84 307.52 688.12 306.22 C 687.60 306.07 687.20 305.76 686.92 305.27 C 686.65 304.80 686.58 304.30 686.72 303.77 C 686.88 303.25 687.19 302.85 687.67 302.57 Z M 574.05 308.82 C 574.05 309.38 573.86 309.85 573.48 310.25 L 570.12 313.60 C 569.74 313.99 569.27 314.19 568.73 314.20 C 568.17 314.21 567.70 314.01 567.30 313.63 C 566.91 313.24 566.71 312.77 566.70 312.23 C 566.70 311.68 566.89 311.20 567.27 310.80 L 570.62 307.45 C 571.01 307.06 571.48 306.86 572.02 306.85 C 572.58 306.85 573.05 307.04 573.45 307.43 C 573.84 307.81 574.04 308.27 574.05 308.82 Z M 578.50 309.55 C 578.50 308.99 578.69 308.52 579.08 308.12 C 579.47 307.74 579.94 307.55 580.50 307.55 C 581.06 307.55 581.53 307.74 581.92 308.12 L 585.23 311.43 C 585.61 311.82 585.80 312.29 585.80 312.85 C 585.80 313.41 585.61 313.88 585.23 314.28 C 584.83 314.66 584.36 314.85 583.80 314.85 C 583.24 314.85 582.77 314.66 582.38 314.28 L 579.08 310.98 C 578.69 310.58 578.50 310.11 578.50 309.55 Z M 582.35 296.50 C 582.90 296.49 583.38 296.67 583.78 297.05 C 584.18 297.43 584.39 297.90 584.40 298.45 C 584.41 299.00 584.23 299.47 583.85 299.88 L 581.35 302.43 C 580.97 302.83 580.50 303.04 579.95 303.05 C 579.40 303.06 578.92 302.88 578.53 302.50 C 578.12 302.12 577.91 301.65 577.90 301.10 C 577.89 300.55 578.07 300.08 578.45 299.68 L 580.95 297.12 C 581.33 296.72 581.80 296.52 582.35 296.50 Z M 566.25 297.30 C 566.25 296.74 566.44 296.27 566.83 295.88 C 567.22 295.49 567.69 295.30 568.25 295.30 C 568.81 295.30 569.28 295.49 569.67 295.88 L 572.28 298.48 C 572.66 298.87 572.85 299.34 572.85 299.90 C 572.85 300.46 572.66 300.93 572.28 301.33 C 571.88 301.71 571.41 301.90 570.85 301.90 C 570.29 301.90 569.82 301.71 569.42 301.33 L 566.83 298.73 C 566.44 298.33 566.25 297.86 566.25 297.30 Z M 540.75 278.32 C 540.80 277.77 541.05 277.31 541.48 276.95 C 541.90 276.60 542.38 276.45 542.92 276.50 C 593.21 281.22 639.28 289.11 681.15 300.18 C 681.69 300.32 682.09 300.62 682.38 301.10 C 682.65 301.58 682.72 302.09 682.58 302.62 C 682.43 303.15 682.13 303.55 681.65 303.82 C 681.18 304.10 680.68 304.17 680.15 304.02 C 638.48 293.02 592.62 285.18 542.58 280.50 C 542.02 280.44 541.56 280.20 541.20 279.77 C 540.85 279.35 540.70 278.87 540.75 278.32 Z M 642.10 318.18 C 642.63 318.02 643.14 318.08 643.62 318.35 L 648.17 320.90 C 648.66 321.17 648.97 321.57 649.12 322.10 C 649.28 322.63 649.22 323.14 648.95 323.62 C 648.68 324.11 648.28 324.43 647.75 324.57 C 647.22 324.73 646.71 324.67 646.23 324.40 L 641.67 321.85 C 641.19 321.58 640.88 321.18 640.73 320.65 C 640.57 320.12 640.63 319.61 640.90 319.12 C 641.17 318.64 641.57 318.32 642.10 318.18 Z M 633.73 317.90 C 634.21 317.63 634.72 317.57 635.25 317.72 C 635.78 317.88 636.18 318.19 636.45 318.67 C 636.72 319.16 636.78 319.67 636.62 320.20 C 636.47 320.73 636.16 321.13 635.67 321.40 L 630.42 324.25 C 629.94 324.52 629.43 324.58 628.90 324.42 C 628.37 324.27 627.97 323.96 627.70 323.47 C 627.43 322.99 627.37 322.48 627.53 321.95 C 627.68 321.42 628.00 321.02 628.48 320.75 L 633.73 317.90 Z M 641.65 311.77 L 645.10 308.77 C 645.52 308.42 646.00 308.26 646.55 308.30 C 647.10 308.34 647.56 308.58 647.92 309.00 C 648.28 309.42 648.44 309.90 648.40 310.45 C 648.35 311.00 648.12 311.46 647.70 311.82 L 644.25 314.82 C 643.83 315.18 643.35 315.34 642.80 315.30 C 642.25 315.25 641.79 315.02 641.42 314.60 C 641.07 314.18 640.91 313.70 640.95 313.15 C 641.00 312.60 641.23 312.14 641.65 311.77 Z M 637.67 310.10 C 638.03 310.53 638.19 311.02 638.15 311.58 C 638.10 312.12 637.86 312.57 637.42 312.93 C 637.00 313.29 636.52 313.44 635.98 313.40 C 635.43 313.36 634.98 313.12 634.62 312.70 L 631.38 308.90 C 631.02 308.47 630.86 307.98 630.90 307.43 C 630.95 306.88 631.20 306.43 631.62 306.08 C 632.05 305.72 632.53 305.56 633.08 305.60 C 633.62 305.65 634.07 305.88 634.42 306.30 L 637.67 310.10 Z M 610.00 235.80 C 610.56 235.80 611.03 235.99 611.42 236.38 C 611.81 236.77 612.00 237.24 612.00 237.80 L 612.00 244.60 L 618.80 244.60 C 619.36 244.60 619.83 244.79 620.23 245.18 C 620.61 245.57 620.80 246.04 620.80 246.60 C 620.80 247.16 620.61 247.63 620.23 248.03 C 619.83 248.41 619.36 248.60 618.80 248.60 L 612.00 248.60 L 612.00 255.40 C 612.00 255.96 611.81 256.43 611.42 256.83 C 611.03 257.21 610.56 257.40 610.00 257.40 C 609.44 257.40 608.97 257.21 608.58 256.83 C 608.19 256.43 608.00 255.96 608.00 255.40 L 608.00 248.60 L 601.20 248.60 C 600.64 248.60 600.17 248.41 599.77 248.03 C 599.39 247.63 599.20 247.16 599.20 246.60 C 599.20 246.04 599.39 245.57 599.77 245.18 C 600.17 244.79 600.64 244.60 601.20 244.60 L 608.00 244.60 L 608.00 237.80 C 608.00 237.24 608.19 236.77 608.58 236.38 C 608.97 235.99 609.44 235.80 610.00 235.80 Z M 652.80 267.75 C 653.35 267.80 653.81 268.03 654.17 268.45 L 657.12 271.95 C 657.48 272.37 657.64 272.85 657.60 273.40 C 657.55 273.95 657.32 274.41 656.90 274.77 C 656.48 275.13 656.00 275.29 655.45 275.25 C 654.90 275.20 654.44 274.97 654.08 274.55 L 651.13 271.05 C 650.77 270.63 650.61 270.15 650.65 269.60 C 650.70 269.05 650.93 268.59 651.35 268.23 C 651.77 267.87 652.25 267.71 652.80 267.75 Z M 652.85 254.72 C 653.40 254.83 653.83 255.12 654.15 255.58 C 654.47 256.02 654.57 256.52 654.48 257.05 L 653.58 261.95 C 653.47 262.50 653.19 262.93 652.73 263.25 C 652.28 263.57 651.79 263.68 651.25 263.58 C 650.70 263.47 650.27 263.19 649.95 262.73 C 649.63 262.28 649.53 261.79 649.62 261.25 L 650.52 256.35 C 650.63 255.80 650.91 255.37 651.38 255.05 C 651.82 254.73 652.32 254.63 652.85 254.72 Z M 658.27 261.90 C 658.80 261.76 659.30 261.84 659.77 262.12 C 660.25 262.41 660.56 262.82 660.70 263.35 C 660.84 263.89 660.76 264.40 660.47 264.88 C 660.18 265.35 659.77 265.66 659.22 265.80 L 656.08 266.65 C 655.55 266.79 655.05 266.71 654.58 266.43 C 654.10 266.14 653.79 265.73 653.65 265.20 C 653.51 264.66 653.59 264.15 653.88 263.68 C 654.17 263.20 654.58 262.89 655.12 262.75 L 658.27 261.90 Z M 642.23 270.88 C 642.30 270.33 642.56 269.89 643.00 269.55 L 646.75 266.80 C 647.19 266.47 647.68 266.35 648.23 266.43 C 648.77 266.50 649.21 266.76 649.55 267.20 C 649.88 267.64 650.00 268.13 649.92 268.68 C 649.85 269.22 649.59 269.66 649.15 270.00 L 645.40 272.75 C 644.96 273.08 644.47 273.20 643.92 273.12 C 643.38 273.05 642.94 272.79 642.60 272.35 C 642.27 271.91 642.14 271.42 642.23 270.88 Z M 646.38 265.43 L 641.17 261.43 C 640.74 261.09 640.49 260.64 640.42 260.10 C 640.35 259.56 640.49 259.06 640.83 258.62 C 641.16 258.19 641.60 257.94 642.15 257.88 C 642.70 257.81 643.19 257.94 643.62 258.27 L 648.83 262.27 C 649.26 262.61 649.51 263.06 649.58 263.60 C 649.65 264.14 649.51 264.64 649.17 265.07 C 648.84 265.51 648.40 265.76 647.85 265.82 C 647.30 265.90 646.81 265.76 646.38 265.43 Z M 616.55 197.53 C 619.21 194.94 622.35 193.65 625.95 193.65 C 629.61 193.65 632.73 194.94 635.33 197.53 C 637.91 200.12 639.20 203.25 639.20 206.90 C 639.20 210.59 637.91 213.73 635.33 216.32 C 632.73 218.91 629.61 220.20 625.95 220.20 C 622.35 220.20 619.21 218.91 616.55 216.32 L 616.53 216.32 C 613.94 213.73 612.65 210.59 612.65 206.90 C 612.65 203.25 613.94 200.12 616.53 197.53 L 616.55 197.53 Z M 625.95 197.65 C 623.42 197.65 621.22 198.56 619.35 200.38 L 619.37 200.38 C 617.56 202.18 616.65 204.35 616.65 206.90 C 616.65 209.48 617.56 211.67 619.37 213.47 L 619.35 213.47 C 621.22 215.29 623.42 216.20 625.95 216.20 C 628.49 216.19 630.67 215.29 632.47 213.47 C 634.29 211.67 635.20 209.48 635.20 206.90 C 635.20 204.35 634.29 202.18 632.47 200.38 C 630.67 198.56 628.49 197.65 625.95 197.65 Z M 567.95 228.72 L 567.97 228.72 C 567.16 229.53 566.75 230.51 566.75 231.65 C 566.75 232.79 567.16 233.77 567.97 234.58 L 567.95 234.58 C 568.79 235.39 569.77 235.80 570.90 235.80 C 572.04 235.80 573.02 235.39 573.83 234.58 C 574.64 233.77 575.05 232.79 575.05 231.65 C 575.05 230.51 574.64 229.53 573.83 228.72 C 573.02 227.91 572.04 227.50 570.90 227.50 C 569.77 227.50 568.79 227.91 567.95 228.72 Z M 565.12 225.88 L 565.15 225.88 C 566.78 224.29 568.70 223.50 570.90 223.50 C 573.16 223.50 575.08 224.29 576.67 225.88 C 578.26 227.47 579.05 229.39 579.05 231.65 C 579.05 233.91 578.26 235.83 576.67 237.42 C 575.08 239.01 573.15 239.80 570.90 239.80 C 568.70 239.80 566.78 239.01 565.15 237.42 L 565.12 237.42 C 563.54 235.83 562.75 233.91 562.75 231.65 C 562.75 229.39 563.54 227.47 565.12 225.88 Z M 583.85 180.10 C 583.85 179.54 584.04 179.07 584.42 178.68 C 584.82 178.29 585.29 178.10 585.85 178.10 C 586.41 178.10 586.88 178.29 587.28 178.68 C 587.66 179.07 587.85 179.54 587.85 180.10 L 587.85 186.90 L 594.65 186.90 C 595.21 186.90 595.68 187.09 596.08 187.47 C 596.46 187.87 596.65 188.34 596.65 188.90 C 596.65 189.46 596.46 189.93 596.08 190.33 C 595.68 190.71 595.21 190.90 594.65 190.90 L 587.85 190.90 L 587.85 197.70 C 587.85 198.26 587.66 198.73 587.28 199.13 C 586.88 199.51 586.41 199.70 585.85 199.70 C 585.29 199.70 584.82 199.51 584.42 199.13 C 584.04 198.73 583.85 198.26 583.85 197.70 L 583.85 190.90 L 577.05 190.90 C 576.49 190.90 576.02 190.71 575.62 190.33 C 575.24 189.93 575.05 189.46 575.05 188.90 C 575.05 188.34 575.24 187.87 575.62 187.47 C 576.02 187.09 576.49 186.90 577.05 186.90 L 583.85 186.90 L 583.85 180.10 Z M 575.35 126.30 C 575.56 125.50 576.01 124.89 576.73 124.47 C 577.44 124.05 578.20 123.94 579.00 124.15 C 579.80 124.36 580.41 124.81 580.83 125.53 C 581.25 126.24 581.36 127.00 581.15 127.80 L 579.85 132.75 C 579.64 133.55 579.18 134.16 578.47 134.57 C 577.76 135.00 577.00 135.11 576.20 134.90 C 575.40 134.69 574.79 134.24 574.38 133.53 C 573.95 132.81 573.84 132.05 574.05 131.25 L 575.35 126.30 Z M 530.23 44.60 C 530.77 45.24 531.01 45.97 530.95 46.80 L 529.40 66.35 C 529.33 67.17 528.98 67.84 528.35 68.38 C 527.71 68.92 526.98 69.16 526.15 69.10 C 525.33 69.03 524.66 68.68 524.13 68.05 C 523.58 67.41 523.34 66.68 523.40 65.85 L 524.95 46.30 C 525.02 45.48 525.37 44.81 526.00 44.28 C 526.64 43.73 527.37 43.49 528.20 43.55 C 529.02 43.62 529.69 43.97 530.23 44.60 Z M 562.98 60.80 C 563.60 60.25 564.33 60.00 565.15 60.05 C 565.97 60.11 566.65 60.45 567.20 61.08 C 567.75 61.70 568.00 62.42 567.95 63.25 C 567.89 64.07 567.55 64.75 566.93 65.30 L 551.08 79.35 C 550.45 79.90 549.73 80.15 548.90 80.10 C 548.08 80.04 547.40 79.70 546.85 79.08 C 546.30 78.45 546.05 77.73 546.10 76.90 C 546.16 76.08 546.50 75.40 547.12 74.85 L 562.98 60.80 Z M 554.77 42.00 C 555.50 42.41 555.97 43.01 556.20 43.80 C 556.42 44.59 556.32 45.35 555.90 46.08 L 542.05 70.67 C 541.64 71.40 541.04 71.87 540.25 72.10 C 539.45 72.32 538.70 72.22 537.97 71.80 C 537.26 71.39 536.79 70.79 536.58 70.00 C 536.35 69.21 536.44 68.45 536.85 67.72 L 550.70 43.12 C 551.11 42.41 551.71 41.95 552.50 41.73 C 553.29 41.50 554.05 41.59 554.77 42.00 Z M 587.98 90.75 C 588.77 90.97 589.38 91.43 589.80 92.15 C 590.22 92.87 590.32 93.62 590.10 94.42 L 584.10 116.82 C 583.88 117.62 583.42 118.23 582.70 118.65 C 581.98 119.06 581.22 119.16 580.43 118.95 C 579.63 118.73 579.02 118.27 578.60 117.55 C 578.19 116.83 578.09 116.07 578.30 115.28 L 584.30 92.88 C 584.52 92.08 584.98 91.47 585.70 91.05 C 586.42 90.64 587.18 90.53 587.98 90.75 Z" fill="#9ba8d5" fill-rule="evenodd" group-id="1" node-id="46" stroke="none" target-height="285.56967" target-width="641.0052" target-x="104.20387" target-y="41.625805"></path></g><g node-id="58"><path d="M 364.50 117.25 C 357.06 117.25 350.70 119.89 345.43 125.17 C 340.14 130.45 337.50 136.81 337.50 144.25 L 337.50 276.40 C 337.50 278.65 337.76 280.81 338.27 282.88 C 338.31 283.00 338.33 283.13 338.35 283.25 C 339.50 287.83 341.86 291.90 345.42 295.48 C 350.70 300.76 357.06 303.40 364.50 303.40 L 510.50 303.40 C 517.94 303.40 524.30 300.76 529.57 295.48 C 534.85 290.20 537.50 283.84 537.50 276.40 L 537.50 144.25 C 537.50 137.48 535.32 131.60 530.95 126.62 C 530.52 126.14 530.06 125.66 529.57 125.17 C 524.30 119.89 517.94 117.25 510.50 117.25 L 364.50 117.25 Z M 504.98 102.67 C 499.70 97.39 493.34 94.75 485.90 94.75 L 339.90 94.75 C 332.46 94.75 326.10 97.39 320.83 102.67 C 315.55 107.95 312.90 114.31 312.90 121.75 L 312.90 253.90 C 312.90 261.34 315.55 267.70 320.83 272.97 C 324.04 276.19 327.65 278.43 331.65 279.70 C 331.55 278.61 331.50 277.51 331.50 276.40 L 331.50 262.50 C 331.50 262.48 331.50 262.45 331.50 262.43 L 331.50 144.25 C 331.50 135.15 334.72 127.38 341.18 120.92 C 347.63 114.47 355.40 111.25 364.50 111.25 L 510.50 111.25 C 510.63 111.25 510.75 111.25 510.88 111.25 C 509.54 108.13 507.58 105.27 504.98 102.67 Z M 533.83 120.92 C 534.40 121.51 534.95 122.09 535.45 122.67 C 540.81 128.77 543.49 135.96 543.50 144.25 L 543.50 249.82 C 543.52 250.01 543.52 250.21 543.50 250.40 L 543.50 276.40 C 543.50 285.50 540.28 293.27 533.83 299.72 C 527.37 306.18 519.60 309.40 510.50 309.40 L 364.50 309.40 C 355.40 309.40 347.63 306.18 341.18 299.72 C 337.19 295.74 334.44 291.24 332.93 286.22 C 326.77 284.96 321.32 281.96 316.57 277.22 C 310.12 270.77 306.90 263.00 306.90 253.90 L 306.90 121.75 C 306.90 112.65 310.12 104.88 316.57 98.42 C 323.03 91.97 330.80 88.75 339.90 88.75 L 485.90 88.75 C 495.00 88.75 502.77 91.97 509.22 98.42 C 513.21 102.42 515.97 106.92 517.50 111.95 C 523.65 113.20 529.10 116.20 533.83 120.92 Z" fill="url(#SVGID_1_)" fill-rule="evenodd" group-id="2" node-id="51" stroke="none" target-height="220.65" target-width="236.6" target-x="306.9" target-y="88.75"></path><path d="M 395.73 166.65 C 393.17 164.08 390.06 162.79 386.40 162.80 C 382.73 162.80 379.61 164.09 377.03 166.67 L 377.03 166.65 C 374.44 169.27 373.15 172.40 373.15 176.05 C 373.15 179.72 374.44 182.84 377.03 185.42 C 379.61 188.01 382.73 189.30 386.40 189.30 C 390.06 189.31 393.17 188.02 395.73 185.45 L 395.75 185.42 C 398.35 182.84 399.65 179.72 399.65 176.05 C 399.64 172.41 398.34 169.28 395.72 166.67 L 395.72 166.65 Z M 399.98 162.43 C 403.76 166.22 405.66 170.76 405.65 176.05 C 405.65 181.37 403.75 185.90 399.98 189.65 L 399.95 189.68 C 396.24 193.42 391.72 195.29 386.40 195.30 C 381.07 195.30 376.53 193.43 372.78 189.68 C 369.03 185.92 367.15 181.38 367.15 176.05 C 367.15 170.77 369.03 166.23 372.78 162.45 L 372.78 162.43 C 376.53 158.68 381.07 156.80 386.40 156.80 C 391.74 156.81 396.26 158.69 399.98 162.45 L 399.98 162.43 Z" fill="url(#SVGID_2_)" fill-rule="evenodd" group-id="2" node-id="53" stroke="none" target-height="38.5" target-width="38.5" target-x="367.151" target-y="156.8"></path><path d="M 479.65 171.95 L 479.70 171.95 C 490.90 171.72 501.48 177.52 511.45 189.35 C 517.08 195.95 522.75 204.82 528.45 215.95 C 528.36 220.38 526.77 221.67 523.67 219.82 C 518.00 208.66 512.40 199.79 506.85 193.20 C 498.28 183.03 489.25 177.95 479.75 177.95 C 467.95 178.18 457.03 184.48 447.00 196.85 C 437.03 209.15 426.63 228.90 415.80 256.10 C 415.53 256.73 415.08 257.23 414.45 257.60 C 413.82 257.93 413.15 258.03 412.45 257.90 C 411.72 257.77 411.13 257.42 410.70 256.85 C 399.23 242.72 387.42 236.17 375.25 237.20 C 367.19 238.07 358.94 242.19 350.50 249.55 C 348.70 249.73 347.44 249.39 346.70 248.53 C 346.64 248.46 346.58 248.38 346.52 248.30 C 345.82 247.28 345.88 246.11 346.70 244.80 C 356.20 236.50 365.52 231.97 374.65 231.20 C 387.55 229.80 400.03 235.82 412.10 249.25 C 422.57 223.72 432.65 204.98 442.35 193.05 C 453.75 179.02 466.18 171.98 479.65 171.95 Z" fill="url(#SVGID_3_)" fill-rule="evenodd" group-id="2" node-id="55" stroke="none" target-height="85.97472" target-width="182.36716" target-x="346.08286" target-y="171.95"></path></g></svg>